<svg version="1.1" xmlns="http://www.w3.org/2000/svg" xmlns:xlink="http://www.w3.org/1999/xlink">
    <symbol id="logo" viewBox="0 0 120 32">
        <path d="M72.4474 24.8486C76.473 24.8486 78.5956 22.7353 78.5956 18.4342V7H66.8848V10.232H74.6676V18.6579C74.6676 20.5723 73.8381 21.5419 72.2522 21.5419C71.0324 21.5419 70.0077 20.8955 69.0806 19.6276L66.8848 22.3126C68.1291 23.9535 70.1541 24.8486 72.4474 24.8486Z"/>
        <path d="M34.2009 7.03981L34.2497 25H30.5413L30.5169 14.0011L25.491 22.6033H23.7099L18.7084 14.2249V25H15V7.03981H18.2693L24.6614 17.8547L30.956 7.03981H34.2009Z"/>
        <path fill-rule="evenodd" clip-rule="evenodd" d="M104.765 16C104.765 21.1961 100.789 25 95.421 25C90.0292 25 86.0767 21.1713 86.0767 16C86.0767 10.8287 90.0292 7 95.421 7C100.789 7 104.765 10.8039 104.765 16ZM90.078 16C90.078 19.3066 92.3713 21.5691 95.421 21.5691C98.4707 21.5691 100.764 19.3066 100.764 16C100.764 12.6934 98.4707 10.4309 95.421 10.4309C92.3713 10.4309 90.078 12.6934 90.078 16Z"/>
        <path fill-rule="evenodd" clip-rule="evenodd" d="M58.7653 16C58.7653 21.1961 54.7885 25 49.421 25C44.0292 25 40.0767 21.1713 40.0767 16C40.0767 10.8287 44.0292 7 49.421 7C54.7885 7 58.7653 10.8039 58.7653 16ZM44.078 16C44.078 19.3066 46.3713 21.5691 49.421 21.5691C52.4707 21.5691 54.7641 19.3066 54.7641 16C54.7641 12.6934 52.4707 10.4309 49.421 10.4309C46.3713 10.4309 44.078 12.6934 44.078 16Z"/>
    </symbol>
    <symbol id="arrow" viewBox="0 0 32 32">
        <path d="M25 8.01344L24.9955 18.1523C24.9954 18.442 24.9229 18.6593 24.7056 18.8766C24.4883 19.0939 24.271 19.1664 23.9813 19.1666C23.402 19.1668 22.9676 18.7324 22.9679 18.1531L22.9714 10.4764L8.77393 24.6738C8.33926 25.1085 7.75993 25.1087 7.3256 24.6744C6.89126 24.2401 6.89149 23.6607 7.32615 23.2261L21.5236 9.02861L13.8469 9.03213C13.2676 9.03236 12.8332 8.59803 12.8334 8.01869C12.8337 7.43936 13.2683 7.00469 13.8477 7.00447L23.9866 7C24.5265 6.99979 25.0002 7.45734 25 8.01344Z"/>
    </symbol>
    <symbol id="arrow-left" viewBox="0 0 32 32">
        <path d="M4.28403 15.3L11.2902 8.3C11.4904 8.1 11.6905 8 11.9907 8C12.291 8 12.4911 8.1 12.6913 8.3C13.0916 8.7 13.0916 9.3 12.6913 9.7L7.38642 15L26.9992 15C27.5997 15 28 15.4 28 16C28 16.6 27.5997 17 26.9992 17L7.38642 17L12.6913 22.3C13.0916 22.7 13.0916 23.3 12.6913 23.7C12.291 24.1 11.6905 24.1 11.2902 23.7L4.28403 16.7C3.91092 16.3272 3.89977 15.684 4.28403 15.3Z"/>
    </symbol>
    <symbol id="arrow-right" viewBox="0 0 32 32">
        <path d="M27.716 16.7L20.7098 23.7C20.5096 23.9 20.3095 24 20.0093 24C19.709 24 19.5089 23.9 19.3087 23.7C18.9084 23.3 18.9084 22.7 19.3087 22.3L24.6136 17H5.00077C4.40031 17 4 16.6 4 16C4 15.4 4.40031 15 5.00077 15L24.6136 15L19.3087 9.7C18.9084 9.3 18.9084 8.7 19.3087 8.3C19.709 7.9 20.3095 7.9 20.7098 8.3L27.716 15.3C28.0891 15.6728 28.1002 16.316 27.716 16.7Z"/>
    </symbol>
    <symbol id="arrow-down" viewBox="0 0 32 32">
        <path d="M15.3 27.7158L8.3 20.7096C8.1 20.5094 8 20.3093 8 20.009C8 19.7088 8.1 19.5087 8.3 19.3085C8.7 18.9082 9.3 18.9082 9.7 19.3085L15 24.6134L15 5.00056C15 4.40009 15.4 3.99979 16 3.99979C16.6 3.99979 17 4.40009 17 5.00056L17 24.6134L22.3 19.3085C22.7 18.9082 23.3 18.9082 23.7 19.3085C24.1 19.7088 24.1 20.3093 23.7 20.7096L16.7 27.7158C16.3272 28.0889 15.684 28.1 15.3 27.7158Z"/>
    </symbol>
    <symbol id="arrow-sm" viewBox="0 0 32 32">
        <path d="M22.0017 11.0114L21.9973 21.1303C21.9971 21.4194 21.9248 21.6362 21.7079 21.8531C21.491 22.07 21.2741 22.1424 20.985 22.1425C20.4068 22.1427 19.9734 21.7092 19.9736 21.131L19.9771 13.4695L9.77213 23.6745C9.33832 24.1083 8.76013 24.1085 8.32666 23.675C7.89319 23.2416 7.89341 22.6634 8.32722 22.2296L18.5322 12.0246L10.8707 12.0281C10.2925 12.0283 9.85901 11.5949 9.85923 11.0167C9.85946 10.4385 10.2933 10.0047 10.8715 10.0045L20.9903 10C21.5292 9.99979 22.0019 10.4564 22.0017 11.0114Z" stroke="none"/>
    </symbol>
    <symbol id="telegram" viewBox="0 0 32 32" fill="none">
        <path d="M11.7748 17.4765L16.666 15.0402C16.8466 14.9502 17.0377 15.1422 16.9472 15.3227L14.4946 20.2093M20.2876 22.1769L23.8795 10.9246C24.4538 9.12538 22.8856 7.54975 21.0859 8.11782L9.8307 11.6705C7.73993 12.3304 7.32569 15.1518 9.18455 16.0714L13.0388 17.978C13.4579 18.1853 13.7927 18.5217 13.9982 18.9419L15.8885 22.807C16.8001 24.6711 19.6204 24.2671 20.2876 22.1769Z" stroke-width="2"/>
    </symbol>
    <symbol id="logo-sm" viewBox="0 0 60 12">
        <path d="M38.1288 11.899C40.8007 11.899 42.2095 10.4902 42.2095 7.6228V0H34.4368V2.15469H39.6024V7.77197C39.6024 9.04821 39.0518 9.69462 37.9993 9.69462C37.1896 9.69462 36.5095 9.26368 35.8942 8.41837L34.4368 10.2084C35.2627 11.3024 36.6067 11.899 38.1288 11.899Z"/>
        <path d="M12.7439 0.02654L12.7764 12H10.315L10.2988 4.66741L6.96303 10.4022H5.78094L2.46135 4.81659V12H0V0.02654H2.16988L6.41246 7.23647L10.5903 0.02654H12.7439Z"/>
        <path fill-rule="evenodd" clip-rule="evenodd" d="M59.5787 6C59.5787 9.46408 56.9393 12 53.3768 12C49.7981 12 47.1748 9.44751 47.1748 6C47.1748 2.55249 49.7981 0 53.3768 0C56.9393 0 59.5787 2.53592 59.5787 6ZM49.8305 6C49.8305 8.20441 51.3527 9.7127 53.3768 9.7127C55.4009 9.7127 56.9231 8.20441 56.9231 6C56.9231 3.79559 55.4009 2.2873 53.3768 2.2873C51.3527 2.2873 49.8305 3.79559 49.8305 6Z"/>
        <path fill-rule="evenodd" clip-rule="evenodd" d="M29.5787 6C29.5787 9.46408 26.9393 12 23.3768 12C19.7981 12 17.1748 9.44751 17.1748 6C17.1748 2.55249 19.7981 0 23.3768 0C26.9393 0 29.5787 2.53592 29.5787 6ZM19.8305 6C19.8305 8.20441 21.3527 9.71271 23.3768 9.71271C25.4009 9.71271 26.9231 8.20441 26.9231 6C26.9231 3.79559 25.4009 2.2873 23.3768 2.2873C21.3527 2.2873 19.8305 3.79559 19.8305 6Z"/>
    </symbol>

</svg>
